<?xml version="1.0" encoding="utf-8"?>
<!-- Generator: Adobe Illustrator 19.2.1, SVG Export Plug-In . SVG Version: 6.00 Build 0)  -->
<svg version="1.1" id="layer" xmlns="http://www.w3.org/2000/svg" xmlns:xlink="http://www.w3.org/1999/xlink" x="0px" y="0px"
	 viewBox="0 0 652 652" style="enable-background:new 0 0 652 652;" xml:space="preserve">
<style type="text/css">
	.st0{fill-rule:evenodd;clip-rule:evenodd;fill:#B3B5B7;}
	.st1{fill-rule:evenodd;clip-rule:evenodd;fill:#373435;}
	.st2{fill-rule:evenodd;clip-rule:evenodd;fill:#FEFEFE;}
	.st3{fill-rule:evenodd;clip-rule:evenodd;fill:#EE4037;}
	.st4{fill:none;stroke:#FEFEFE;stroke-width:0.5917;stroke-miterlimit:10;}
</style>
<path class="st0" d="M522.7,321.8c0,138-90.6,250-202.6,250c-111.9,0-202.6-112-202.6-250c0-138.1,90.8-250,202.6-250
	C432,71.8,522.7,183.7,522.7,321.8z"/>
<path class="st1" d="M514.2,321.1c0,67.4-21.7,128.4-56.8,172.5c-17.5,22.1-38.4,39.9-61.6,52.2c-23.2,12.3-48.7,19.2-75.5,19.2
	c-26.8,0-52.3-6.8-75.5-19.2c-23.2-12.3-44.1-30.2-61.6-52.2c-35.1-44.1-56.8-105.1-56.8-172.5c0-67.4,21.7-128.4,56.8-172.5
	c17.5-22.1,38.4-39.9,61.6-52.2C268,84,293.5,77.2,320.3,77.2c26.8,0,52.3,6.8,75.5,19.2c23.2,12.3,44.1,30.2,61.6,52.2
	C492.5,192.7,514.2,253.7,514.2,321.1 M241.2,217.8c-20.6,28.4-32.1,66-32.1,106.1c0,40,11.5,77.8,32.1,106.2
	c10.5,14.4,22.8,25.5,36.2,33c13.4,7.5,27.9,11.5,42.8,11.5c15,0,29.5-3.9,42.8-11.5c13.4-7.5,25.6-18.6,36.2-33
	c20.6-28.4,32.1-66.2,32.1-106.2c0-40-11.5-77.6-32.1-106.1c-10.5-14.4-22.8-25.5-36.2-33.1c-13.4-7.6-27.8-11.5-42.8-11.5
	c-15,0-29.5,4-42.8,11.5C264,192.2,251.7,203.4,241.2,217.8z"/>
<path class="st2" d="M401.7,410.6l-163,0.3c-12.4-24.4-19.8-54.5-19.8-87.1c0-40.5,11.3-77.2,29.7-103.8
	c9.2-13.3,20.1-24.1,32.2-31.5c12.1-7.4,25.4-11.6,39.3-11.6c13.9,0,27.2,4.1,39.3,11.6c12.1,7.4,23,18.2,32.2,31.5
	c18.3,26.6,29.7,63.3,29.7,103.8C421.3,356.3,414.1,386.3,401.7,410.6"/>
<path class="st2" d="M176.8,356.2c0,4.7-4,8.7-8.9,8.7c-4.9,0-8.9-4-8.9-8.7c0-4.9,4-8.9,8.9-8.9
	C172.9,347.3,176.8,351.3,176.8,356.2L176.8,356.2z"/>
<path class="st2" d="M476.4,356.2c0,4.7-3.8,8.7-8.7,8.7c-4.9,0-8.9-4-8.9-8.7c0-4.9,4-8.9,8.9-8.9
	C472.5,347.3,476.4,351.3,476.4,356.2L476.4,356.2z"/>
<path class="st2" d="M190.4,321.5l-0.2-1.5c-0.5-3.1-0.3-2.9-9.2-3.5l-28.4-2c-8.9-0.6-8.4-0.6-9.5,2.1l-0.3,1.5l-2.1-0.2l2.1-28.6
	c4-0.5,8.7-0.2,12.7,0.2l0.3,2.3c-10.1,0.9-10.4,2.9-10.8,9.5l-0.3,4.4l20,1.4l0.3-4.1c0.5-5.7,0.5-6.4-2.9-7l-2.6-0.5v-1.7
	l15.6,1.1l-0.2,1.7l-2.4,0.2c-3.5,0.2-3.5,1.1-4,6.3l-0.3,4.4l20.9,1.4c0.8-2,1.4-4,1.5-6.1c0.8-9.3-5.2-10.4-11-12.1l0.8-2.1
	c5.3,0.6,9.5,1.4,14.1,3.1l-2.1,30.1L190.4,321.5z"/>
<path class="st2" d="M193.5,286.2V285c-0.2-2.4,0.2-2.4-6.9-3.7l-23.1-4.3c-6-1.1-6.7-1.2-7.6,1.1l-0.5,1.1l-1.5-0.3l2.6-13.4
	l1.5,0.3v1.2c0,2.4,0.8,2.6,6.7,3.7l29,5.3c0.8-1.5,1.4-2.9,1.7-4.4c1.4-7-2.9-7.8-7.8-10.2l0.8-1.7c4,1.1,7.3,2,11,3.8l-4.3,23.1
	L193.5,286.2z"/>
<path class="st2" d="M199,259.2l0.2-1.2c0.2-2.4,0.3-2.4-6.6-4.6l-22-6.6c-6.9-2.1-6.6-2-7.9,0l-0.6,1.1l-1.5-0.5l7-22.2
	c3.4,0.3,6.9,1.5,10.1,2.4l-0.3,1.8c-8.1-1.1-8.7,0.5-10.4,5.5l-1.1,3.5l15.6,4.6l1.1-3.2c1.4-4.3,1.5-5-0.9-6.1l-2.1-0.8l0.5-1.2
	l12.1,3.5l-0.3,1.4l-2.1-0.5c-2.8-0.5-2.9,0.3-4.3,4.3l-1.1,3.5l16.2,4.9c1.1-1.4,2-2.9,2.4-4.6c2.3-7.2-2.1-9.2-6.4-11.5l0.9-1.7
	c4.3,1.5,7.3,2.9,10.7,5l-7.5,23.4L199,259.2z"/>
<path class="st2" d="M208.3,231.2l0.3-1.1c0.8-2.3,0-2.8-5.8-5.2l-21.2-9.3c-5.7-2.4-6.4-2.8-7.8-0.8l-0.8,0.9l-1.5-0.6l5.7-12.2
	c2.6-5.7,6.9-11.8,15.9-7.8c9.8,4.3,8.9,12.8,6.9,17.9l-2.3-1.1c1.1-3.7,0.6-7.5-6.4-10.5c-6.1-2.6-10.4-0.6-12.2,3.2
	c-0.3,0.8-0.5,1.5-0.6,2.4l27.2,11.9c5.8,2.4,6.6,2.8,7.8,0.8l1.1-1.7l1.5,0.6l-6.1,13.3L208.3,231.2z"/>
<path class="st2" d="M194.7,188.9c-5.2-3.5-5.8-4-7.3-2.6l-0.8,0.8l-1.4-1.1l6.9-9.5l1.4,0.9l-0.5,0.9c-0.9,2-0.3,2.4,4.9,6l7.6,5.2
	l7.6-10.5l-7.6-5.2c-5.2-3.5-5.8-4-7.3-2.6l-0.8,0.8l-1.4-0.9l6.9-9.6l1.4,0.9l-0.3,1.1c-0.9,1.8-0.3,2.3,4.9,5.8l18.9,13.1
	c5.2,3.5,5.8,4,7.3,2.6l0.8-0.8l1.4,0.9l-6.9,9.6l-1.4-0.9l0.5-1.1c0.8-1.8,0.2-2.3-5-5.8l-9-6.3l-7.6,10.5l9,6.3
	c5.2,3.5,5.8,4,7.3,2.6l0.8-0.8l1.4,0.9l-6.9,9.5l-1.4-0.9l0.5-0.9c0.9-1.8,0.2-2.3-4.9-5.8L194.7,188.9z"/>
<path class="st2" d="M263.9,158.6l1.1-0.8c1.5-1.4,0.5-3.4-3.7-10.5l-13.9-24.8c0.3-0.3,1.5-1.2,1.7-1.4l33,16.2l-8.3-14.5
	c-5-8.9-5.5-9.2-7.8-8.3l-1.4,0.5l-0.8-1.4l9.2-4.9l0.8,1.4l-1.1,0.9c-1.7,1.2-0.5,3.2,3.5,10.4l14.1,24.8c-0.5,0.3-1.4,1.2-1.8,1.5
	l-32.7-16l8.1,14.5c4.9,8.6,5.3,8.7,7.8,7.9l1.2-0.5l0.9,1.4l-9.2,5L263.9,158.6z"/>
<path class="st2" d="M292.4,106.7l-2,0.3c-5.8,0.9-6.1,2.6-6.4,9.5l-1.8,0.3c-0.2-0.9-0.9-9.3-1.1-10.7l28.4-4.4
	c0.5,1.4,2.1,9.5,2.3,10.4l-1.8,0.3c-2.3-6.4-3.2-7.9-8.9-7l-2.1,0.5l4.9,29.2c1.1,6.3,1.1,6.4,4.4,6.6h1.2l0.3,1.5l-15.7,2.6
	l-0.2-1.7l1.1-0.3c3.2-1.2,3.2-1.4,2.1-7.6L292.4,106.7z"/>
<path class="st2" d="M356.5,152.7l0.3-0.6c4,0.3,4.4-3.5,2.9-8.3c-5.3,5.3-12.5,6.6-18.5,4.6c-7-2.4-12.5-10.5-9.2-19.9
	c2.4-7,8.9-10.8,15-10.4c-2-2.8-2.8-6.3-1.4-10.1c2.3-6.4,8.7-7.6,13.3-6.1c4.6,1.5,8.1,6.1,6,12.2c-0.5,0.9-0.9,1.8-1.5,2.6
	c2.1,3.4,4.9,6.4,8.6,7.8c2.1,0.6,5.3,0.5,6.4-2.4c0.6-1.7,0-3.1-1.2-3.5c-1.1-0.3-2.1,0-3.2,0.3c1.8-1.7,4.3-2.9,6.4-2.3
	c2.9,1.1,3.7,4.3,2.4,7.6c-1.8,5.3-7,7.3-11.3,5.8c-1.8-0.6-3.1-1.7-4.3-3.4c0.2,4.7-1.4,9-2.9,11.5c1.8,4.3,2.9,9,3.4,13.9
	c0.2,2,0.5,3.4,2.1,4.4l-0.2,0.6L356.5,152.7z M357.9,139.4l-8.6-16.8l-1.2-2.3c-4.4,1.5-7.5,3.8-9.3,9.2c-2.6,7-0.5,13.6,5.3,15.6
	c4.6,1.5,10.4-0.3,14.2-4.4L357.9,139.4z M360.8,112.3c1.2-3.5,0-6.4-2.9-7.3c-2.3-0.9-5.2,0.2-6.3,3.1c-1.2,3.4,0.6,7.3,2.3,9.6
	C356.7,117.2,359.6,115.5,360.8,112.3L360.8,112.3z M362.7,134.3c2.7-6.1,3.1-12.7,0.3-17.1c-2.4,2.3-5,2.8-7.9,2.4L362.7,134.3z"/>
<path class="st2" d="M418,181.8c-4.1,3.1-7.9,5.8-11.8,7.2c-2.4-0.9-6.3-2.3-11-7.3c-7.9-8.4-11-20.8,3.7-33.9
	c13.6-12.2,27.5-9.2,35.5-0.8c4.6,4.9,5.7,8.7,6.3,11.6c-1.5,2-3.1,4.1-8.6,9l-1.8-1.4c2-2.4,8.7-10.2,1.8-17.4
	c-5.8-6.4-16.2-4.3-26.1,4.6c-1.8,1.7-18,16.2-8.4,26.4c7.5,8.1,18.8,0.5,19.4,0L418,181.8z"/>
<path class="st2" d="M461.5,227.5c2.6-1.8,8.3-5.2,6-10.2c-1.1-2.6-4.3-3.7-7.8-2.3c-9,3.8-2,18.3-14.5,23.5
	c-8.4,3.5-13.9-1.1-16.4-6.6c-1.7-4.1-1.5-7.3-1.2-9.2c3.2-2.8,5.8-4,10.4-6l1.5,2c-3.2,2.1-10.7,7-8.1,13c1.2,2.9,4.7,3.8,8.6,2.1
	c9.9-4.1,2.9-18.2,15-23.1c7.3-3.2,12.4,0,15,6c1.5,3.4,1.5,6,0.9,8.1c-2.6,1.5-5.7,3.1-8.7,4.3L461.5,227.5z"/>
<path class="st2" d="M475.4,240.8l-0.6-1.8c-1.7-5.5-3.4-5.7-10.4-5l-0.5-1.7c0.9-0.3,9.3-2.1,10.7-2.3l7.9,26.9
	c-1.4,0.6-9.5,3.2-10.4,3.5l-0.5-1.7c6.1-3.2,7.6-4.1,6-9.6l-0.5-1.8l-29.2,8.1c-6.3,1.7-6.6,1.8-6.3,5l0.2,1.2l-1.5,0.5l-4.4-15
	l1.7-0.3l0.5,1.1c1.5,2.9,1.8,2.9,8.1,1.1L475.4,240.8z"/>
<path class="st2" d="M443,267.4l0.3,1.2c1.1,2.3,0.8,2.3,7.9,1.1l22.9-3.7c6.1-1.1,6.9-1.2,6.9-3.5v-1.2l1.7-0.3l2.3,13.4l-1.7,0.3
	l-0.3-1.1c-0.9-2.3-1.7-2.1-7.8-1.2l-29,4.7c-0.2,1.5-0.3,3.2,0,4.7c1.2,7,5.5,6.3,10.8,6.9l-0.2,2c-4.1,0.3-7.5,0.5-11.6,0l-4-23.1
	L443,267.4z"/>
<path class="st2" d="M447.5,293.7l0.3,1.2c0.8,2.3,0.5,2.3,7.6,1.8l23.1-1.5c7.2-0.6,6.9-0.5,7.5-2.9v-1.2l1.7-0.2l1.7,23.2
	c-3.2,0.8-7,1.1-10.2,1.2l-0.5-1.7c7.9-1.8,7.9-3.5,7.5-8.9l-0.2-3.7l-16.4,1.2l0.3,3.4c0.3,4.4,0.3,5.2,3.1,5.3h2.3v1.4l-12.5,0.8
	l-0.2-1.2l2-0.5c2.8-0.5,2.8-1.2,2.4-5.5l-0.3-3.5l-16.8,1.1c-0.5,1.7-0.8,3.5-0.6,5.2c0.5,7.5,5.3,7.8,10.2,8.4l-0.3,1.8
	c-4.4,0.2-7.8-0.2-11.8-0.9l-1.7-24.3L447.5,293.7z"/>
<path class="st2" d="M262.1,160l-1.2,0.6c-1.7,0.9-3.2,0-5.7-1.4L222.7,141c-0.6,0.8-1.1,1.4-1.7,2.6l15.4,31.8
	c1.8,4.1,1.8,5.2,1.4,6.3l-0.8,1.2l1.1,1.1l8.3-7.5l-1.1-1.2l-2.4,1.4c-0.8,0.5-1.4,0.6-2-0.2c-0.3-0.3-1.4-2.1-2.3-3.8l-11.8-22
	l0.2-0.2l17,9.9c-3.5-0.2-6.7,1.2-8.9,3.4l1.2,2.4c3.7-3.2,8.4-4,12.4-3.2l2.4,1.5c0.9,0.5,1.4,0.8,1.8,1.2c0.6,0.6,0.3,1.4-0.3,2.3
	l-1.2,1.7l1.1,1.1l10.7-9.6L262.1,160z"/>
<path class="st2" d="M454.5,186c-0.8-0.8-1.2-1.4-2.3-2.1l-35,8.3c-4.6,1.1-5.7,0.9-6.6,0.2l-1.1-0.9l-1.4,0.9l6,9.3l1.4-0.8
	l-0.9-2.7c-0.3-0.8-0.3-1.4,0.6-1.8c0.3-0.2,2.3-0.9,4.3-1.4L444,188l0.2,0.2l-13.3,14.4v-0.2c0.8-3.2,0-6.6-1.7-9.2l-2.8,0.8
	c2.4,4.1,2.3,8.9,0.8,12.4l-2,2.1c-0.6,0.8-1.1,1.2-1.7,1.5c-0.8,0.5-1.5,0-2.1-0.8l-1.4-1.5l-1.5,0.9l7.6,12.1l1.5-0.8l-0.5-1.2
	c-0.5-1.8,0.6-3.2,2.4-5.2L454.5,186z"/>
<path class="st1" d="M237,362.2c-0.6,1.9-1.2,3.5-1.8,4.6c-1.2,1.8-2.9,3.7-5,4.9c-2.2,1.2-4.8,1.8-8.1,1.2c-7.6-1.5-6-12.8-6-12.8
	s0.3,6.3,4.9,8.6c1.1,0.5,2.7,1,4.5,0.7c1.8-0.2,3.8-1.1,5.9-3c2.9-2.6,3.4-7.2,3.2-11c-0.2-0.8-0.4-1.6-0.6-2.5
	c-3.5-15.3-2.1-21.1,1.7-30.3c3.4-8.4,12.5-17.6,19.7-23.1c-1.2-0.5-2-1.5-2.9-3.2c-1.1-1.7,2.9-10.1,2.8-14.4
	c-0.2-9.6-7.2-24.6-7.5-25.2c-0.5-0.8-2-1.4-2.8-1.8c-1.4-1.1-9.2-9.8-12.2-16.3c2.3-1.2,5.2-2.1,7.6-2.4c2.4,1.4,2.9,4.7,5.7,5.7
	c0.3-2.9-2.8-4.6-2.3-7c2.8-0.9,6.3-2.1,9.5-3.1c1.5,2.4,1.5,6.4,4.7,7.2c1.5-2.6-0.9-5.5-1.4-8.3c1.2,0,1.4-0.8,2.8-0.9
	c1.8-0.6,4.6-1.7,6.7-1.8c1.5,1.8,1.2,5.3,3.5,6.6c2.3-2.3-0.6-6.1,0.9-9l9.8-3.2l0.8,1.8c-1.1,0.9,0.9,2.4-0.2,3.4
	c-0.3,0.6-0.1,1.1,0.2,1.5c0.3,0.4,0.8,0.8,1,1.3c1.7-2.4,0.3-5.5,0.6-8.4c2.3-1.2,5.3-2.3,7.9-2.6c1.2,6.9,1.4,12.4,0.6,19.3
	c-0.2,2.1-1.7,2.3-1.2,4.7c1.1,2.4,1.5,21.7,10.7,26c1.5,1.8,4.2,2.6,6.3,3.7c1.1,0.6,2,1.2,2.5,2.1c0.5,0.9,0.7,2,0.2,3.5
	c2.6,0.8,6.1-0.8,8.3-2c7.6-3.8,9.3-8.7,18.5-12.2c9.2-3.7,16.7-2.3,23.5,0.9c6.9,3.4,14.2,10.2,17.6,14.7
	c6.7,7.6,8.3,11.2,13.3,18.6c2.1,1.5,6.9-0.3,9.2,0.2c0.8,0.5,0.9,1,0.6,1.5c-0.3,0.5-1,1-1.9,1.5c-1.7,1-3.8,2-4,3.1
	c0.2,0.7,0.7,1.3,1.5,1.9c0.8,0.6,1.9,1.1,3.2,1.5c1.3,0.3,3.9,0.2,6.5-1c2.6-1.1,5.3-3.2,6.8-6.8c2.1-4.8,2.1-9.3,0.6-12.9
	c-0.7-1.8-1.8-3.3-3.3-4.5c-1.4-1.2-3.2-2.1-5.2-2.5c-1.8-0.5-3.1-1.1-4-1.9c-0.8-0.8-1.2-1.8-1.2-3c-0.1-1.2,0.3-2.3,0.9-3.3
	c0.6-1,1.5-1.8,2.4-2.4c0.9-0.6,1.8-1.1,2.5-1.4c0.7-0.3,1.2-0.3,1.2-0.2c0.3,0.5-0.9,1.1,0.8,2.9c0.3,0.4,0.8,0.6,1.2,0.7
	c0.4,0.1,0.8,0.1,1.2,0c0.6-0.1,1-0.2,0.3,0.4c-0.8,0.6-2.3,1.3-2.8,2c-0.3,0.3-0.3,0.7,0.1,1c0.4,0.3,1.3,0.6,2.8,0.8
	c2,0.3,4.7,0.9,8.7,5c1.7,1.7,4,5.3,5.2,9.7c1.2,4.4,1.4,9.7-1.1,14.7c-7.8,15.9-24,12.7-24,12.7c-12.1-1.8-16.7-13.8-23.8-12.5
	c-0.5,0.5-0.5,1-0.4,1.5c0.1,0.5,0.3,1.1,0.4,1.5c-2.9,0.5-7.2-0.8-10.2,0.6c-3.1,1.2-5.2,3.4-6.3,5.5c-1.3,2.4-2.3,5.3-2.7,8.6
	c-0.3,3.2,0,6.6,1.5,9.9c0.9,1.7,2,3.2,3.1,4.4c2.9,3.1,15.3,9.6,18.6,12.2c3.4,2.6,7,15,7.9,17.9c0.5,1.5,1.8,2.8,2.5,4.1
	c0.4,0.6,0.6,1.3,0.6,1.9c-0.1,0.6-0.4,1.3-1.3,1.9c-3.1,2.3-9.9,3.1-13.8,3.7c-1,0.2-1.7,0-2.2-0.3c-0.5-0.4-0.8-0.9-1-1.5
	c-0.4-1.2-0.2-2.7-0.3-3.3c-0.3-3.7-1.2-9.5-1.8-11.2c-0.1-0.2-0.3-0.4-0.6-0.6c-0.3-0.2-0.8-0.4-1.3-0.7c-1-0.4-2.4-0.9-3.9-1.3
	c-3-0.8-6.3-1.6-8.1-2.1c-3.5-1.1-7.6-2.6-7.6-2.6s-0.2-0.2,0,2c0.2,2,1.2,12.7,1.5,16.2c0.5,4.4,0.9,7.9,4.1,12.2
	c1.5,1.9,2.7,4.7,3.1,6.9c0.2,1.1,0.2,2.1,0,2.8c-0.1,0.3-0.3,0.6-0.6,0.7c-0.3,0.1-0.6,0.2-1.1,0.1c-9.5-1.7-16.8,2.4-18.2,2.4
	c-0.2,0-0.5-0.1-0.7-0.3c-0.2-0.2-0.4-0.5-0.6-0.9c-0.3-0.8-0.6-1.9-0.8-3.2c-0.3-2.5-0.2-5.6,0.5-7.7c0.8-1.8-5.2-22.8-7.2-27.7
	c-2.1-4.9-0.9-5.7-2.6-6.3c-1.8-0.6-0.6,4.4-16.2,11.9c-12.5,5.8-18.5,3.1-20.3,4c-0.5,0.3-0.7,0.7-0.7,1.4c0,0.6,0.1,1.4,0.3,2.4
	c0.4,1.9,0.9,4.5,0.8,7.5c-0.5,6.1-4.6,16.2-3.5,19.1c0.2,0.6,3.4,3.4,4,4.4c0.5,0.7,1,1.9,1,3.3c0,1.4-0.4,2.8-1.6,4.1l-20.2,0
	c-0.4,0-0.7-0.2-1-0.4c-0.3-0.2-0.5-0.5-0.6-0.8c-0.3-0.7-0.5-1.6-0.5-2.6c-0.1-2,0.3-4.4,0.3-6c0-1.4,1.2-7.3,1.6-13
	c0.2-2.8,0.3-5.6-0.1-7.6c-0.2-1-0.5-1.9-0.9-2.5c-0.2-0.3-0.5-0.5-0.8-0.7c-0.3-0.2-0.6-0.3-1-0.3c-1.7-0.2-2.4,2.8-5,4.6
	c-2.6,1.7-9.5,7.5-11.5,10.7c-1,1.6-1.6,3.4-1.8,5.2c-0.2,1.8,0,3.4,0.6,4.7c0.2,0.6,1.7,2.4,2.1,3.5c0.3,0.6,0.5,1.7,0.6,2.7
	c0,1-0.1,2-0.6,2.5h-19.9c-0.3,0-0.5-0.2-0.7-0.5c-0.2-0.3-0.4-0.6-0.5-1c-0.3-0.8-0.5-1.9-0.6-3c-0.2-2.2-0.2-4.5-0.2-5
	c-0.2-4.1,0.8-8.4,2.1-12.2c2.3-6.6,9.3-12.4,9.8-14.7C241.8,370.7,239.5,367.7,237,362.2"/>
<path class="st0" d="M326.6,308.2c0.6,0.9,2.9,0,2.7,1.7c0.5,0.5,1,0.5,1.5,0.4c0.5-0.1,1.1-0.3,1.6-0.4c-0.3-0.4-0.9-0.4-1.4-0.5
	c-0.5-0.1-0.9-0.2-0.7-0.9l0.6-0.3C329.5,308.5,327.8,306.1,326.6,308.2 M322.8,304.9c2,0.6,3.5-0.3,5.2-1.1c-0.8-0.2-1.8-0.2-2.8,0
	C324.3,304,323.4,304.3,322.8,304.9L322.8,304.9z M319,302.6c2.1-0.5,4.3-1.5,6.4-3.2C323.1,299.7,320.5,300.6,319,302.6z
	 M353.9,280.3c4.7-0.6,5.2,6.6,9.8,4.7c-0.5-2.4,3.8-0.9,2.8-3.8c0.2-0.4,0.5-0.4,0.9-0.4c0.3,0.1,0.7,0.2,1,0.2v0.5
	c0.6,0.2,0.9-0.1,1.2-0.5c0.2-0.4,0.4-0.9,0.8-1.2c-2.6-0.5-3.1-4.1-6-4.1c-0.3-0.9-1.1-1.1-1.7-1.5c0.2,1.4,2.3,2,2.4,3.7
	c-1.7,0.2-3.4-1.5-5.2-0.8c-0.8-0.3-1.4-1.2-2.1-0.9C357,278.4,354.7,278.1,353.9,280.3z M329.7,286.1c1.1,0.7,2.2,0.8,3.4,0.7
	c1.1-0.1,2.3-0.5,3.4-0.9c-0.5-1.1-1.7-0.8-2.6-1.1l-3.5-2.3C330.9,284.4,327.8,284.5,329.7,286.1L329.7,286.1z M338.2,275.8
	c-0.1-0.8-0.4-1.3-0.9-1.8s-1.1-0.7-1.7-0.8c0.2,0.5,0.5,1,1,1.5C337,275.3,337.5,275.7,338.2,275.8z M330.7,275.7
	c1.2,0.2,0.5,1.7,1.5,1.7l2-0.5l-0.6-2c1.2-0.3,2,1.4,3.1,1.1l-3.2-2.4v1.1c-0.3-0.2-0.6-0.4-0.9-0.5c-0.3-0.1-0.6-0.1-0.9,0
	c-0.3,0.1-0.5,0.3-0.7,0.5C330.8,274.9,330.7,275.3,330.7,275.7z M324.9,274.1c4.4-3.8,8.4-8.1,18.6-9.8c6-1.1,11.1,0,15.4,2.1
	c4.3,2.1,8,5.1,11.2,8c6.4,5.8,13.3,14.4,18,22.6l0.5,0.9c-3.2,0.2-6.6,1.2-9.2-1.5c-1.7,0.3-0.9-1.4-2.3-1.5
	c-0.5,0-0.2,0.6-0.5,0.9h-0.3l0.2-1.4c-0.5-0.2-0.8-0.2-1.1-0.1c-0.3,0.1-0.5,0.4-0.6,0.8c-0.3-0.3-0.6-0.7-0.7-1.1
	c-0.2-0.4-0.2-0.9-0.2-1.3c-0.5-0.2-0.8,0.1-0.9,0.4c-0.2,0.3-0.3,0.7-0.6,1c-0.6-0.6-0.5-1.4-0.9-2c-1.3-0.5-1.3-0.1-1,0.5
	c0.1,0.3,0.3,0.6,0.4,1c0.1,0.3,0.1,0.6-0.1,0.9c-1.5-0.6,0.5-2.8-1.8-2.6c-0.2,0.2-0.2,0.5-0.3,0.6c-0.8-0.3-0.6-1.5-2-1.4
	c-0.6,1.1,0.5,1.7,0.2,2.6l-0.9,0.3l0.3,1.7c-0.2,0.8-1.2,0.8-1.2,1.7c-0.5,0.8-0.7,2.1-1,3.2c-0.2,0.6-0.3,1.1-0.6,1.4
	c-0.3,0.4-0.7,0.6-1.3,0.7c0.6-1.2-1.2-2.1-0.3-3.2l-0.5-0.2c0.5-1.7-2.4-0.8-1.4-2.6l-3.7-0.9c-1.7-1.4-2.4-3.5-3.2-5.3
	c0.5-0.6,1.5-0.9,1.4-2l-1.2-0.8l0.5-0.3c1.5,2.1,2.1-0.9,3.7-0.5c0.5-0.8,2-0.8,1.7-2c-1-0.8-2.1-1-3.3-0.8
	c-1.1,0.2-2.2,0.7-3.2,1.6c-1.2,0.8-2.8-0.8-3.8,0.8c-1.4-1.5-2.8-2.9-4-4.3c-2-0.6-4-0.6-6-0.8v0.5c1.8,1.2,4.1,2.4,5.9,4
	c1.9,1.6,3.3,3.5,3.5,6.3c-0.6,7.3,1.4,11.6,2,18.6c0.2,1.9-0.3,4.1-1.1,5.7c-0.4,0.8-0.8,1.5-1.3,1.8c-0.5,0.4-1,0.5-1.4,0.2
	c-13.9-7.9-30.6-7.9-35.5-23.2c-1.3-4-1.5-7.5-0.2-10.6c1.3-3.1,4.1-5.6,8.9-7.6C319.7,277.2,321.7,276.7,324.9,274.1z M312.2,294
	c1.4,1.5,3.1-0.9,4.7-0.6l-2.8,2.6c0.9,0.8,2.1-1.4,3.1-0.6c-0.3,1.1-1.7,1.4-2,2.3c1.5,0.3,2.9-1.5,4.6-2.1
	c1.2-0.6,2.8-0.8,3.5-2.1l-2.1,0.2c0-0.4,0.1-0.7,0.2-0.9c0.2-0.2,0.4-0.4,0.7-0.6c-0.9-0.6-2,0.8-3.2,0.3c0.5-0.9,1.7-1.4,2.4-2
	c-0.9-0.8-1.8,0.5-2.9,0.2c1.2-2.1,3.2-4.4,3.1-6.9c0.5-0.5,1.4-0.6,2.1-0.8c0.4-0.1,0.7-0.3,0.9-0.6c0.2-0.3,0.3-0.6,0.2-1.2
	c0.7-0.1,1.4-0.4,2-0.8c0.6-0.5,1.2-1.1,1.5-1.8c-0.2-0.3-0.4-0.4-0.7-0.5c-0.3-0.1-0.6-0.2-0.9-0.2c-0.6,0-1.3,0.1-1.8,0.1
	c-5.7,0.8-9.8,6-12.7,10.4C312.5,290,310.9,292.5,312.2,294z M329.5,276.6c0.2,0.3,0.3,0.7,0.5,0.9c0.2,0.2,0.5,0.4,1,0.3
	c0.1-0.5-0.2-0.8-0.5-1.1C330.2,276.5,329.8,276.4,329.5,276.6z M343.1,279.8c0.3-0.2,0.8-0.5,0.6-0.8c1.1-0.2,0.2,0.9,0.9,1.2
	c0.6-1.5,0.8-3.4,0.6-4.9l-0.9,3.2c-1.2-1.1-0.5-3.2-1.2-4.6C342.6,276,343.2,277.8,343.1,279.8L343.1,279.8z M346.3,281.5
	c0.6-1.5,1.2-3.8,0.8-5.5C346.6,277.7,345.8,279.8,346.3,281.5z M318.1,298.4c0.3-0.2,0.9,0.1,1.1,0.1c0.3,1.4-2,1.4-1.4,2.4
	c2.3-0.8,4.9-1.5,6.6-3.2c-1.2-0.9-2.6,0.6-4,0.3c0.8-1.7,3.2-1.2,3.7-2.8C322,296.3,320.1,296.9,318.1,298.4z M321.1,303.5
	c1.7,1.4,3.5-1.2,5.5-1.1c0.5-0.3,1.2-0.5,1.2-1.1C325.4,301,323.2,302.4,321.1,303.5z M324.1,306.8c1.7,0.2,3.2-0.2,4.7-0.9
	C327.2,305.8,325.2,305.9,324.1,306.8z"/>
<path class="st0" d="M358.5,280.3c0.1-0.5,0.5-1.2,0.9-1.7c0.5-0.5,1.1-0.6,1.5,0.2c-1.2,0.3-1.4,1.5-2,2L358.5,280.3z"/>
<path class="st0" d="M361,282.1c0.3-0.5,0.8-0.5,1.3-0.5c0.5,0.1,0.9,0.3,1,0.5c0.2,0.5-0.3,0.8-0.6,0.8
	C361.9,283,361.6,282.4,361,282.1"/>
<path class="st3" d="M301.5,287c0.2,0.2,0.5,0.2,0.8,0.2c0.3,0,0.6-0.1,0.9-0.2c1.5,1.2,1.2,4.6,3.4,4.9c1.1-2.4-3.5-5.5,0-7
	c0-0.5-0.6-0.5-0.9-0.6c-0.3,0.2-0.6,0.2-0.9,0.2c-0.3,0-0.6-0.1-0.9-0.2c-0.2-0.6-0.6-1.5-1.4-0.8C303.5,285,301.2,285.5,301.5,287
	 M298.5,283.9c2.3-1.7,3.8-4.6,7.2-4.6c1.9,0.5,3,1.3,3.5,2.4c0.5,1,0.5,2.3,0.2,3.6c-0.5,2.7-1.9,5.7-1.4,8.1c0.3,2,1.1,4,0.3,6.1
	c-13.4,5.3-28,11.2-40.3,16.2l-6.7-16.8c2.6-1.2,3.4-2.6,6.3-3.1C278,298,290.4,289.7,298.5,283.9L298.5,283.9z M266.8,298.1
	c1.1,1.2-0.8,1.7-0.9,2.8c0.2,0.4,0.4,0.5,0.7,0.6c0.3,0,0.7-0.1,1.1-0.2c1.4,1.4,1.2,4.6,3.4,4.9c1.1-2.3-3.5-5.5-0.2-6.9
	c-0.3-1.7-2.6,0.5-2.6-1.7C267.6,296.9,267,297.2,266.8,298.1z"/>
<path class="st2" d="M260.3,302.6l0.3-0.2c3.1,4.4,4.6,10.4,6.9,15.4l0.9,0.8c0.3,0.2,0.7,0.3,1,0.3c0.3,0,0.6-0.1,0.9-0.2
	c0.3-0.1,0.5-0.4,0.7-0.6c0.2-0.3,0.3-0.6,0.3-1c0.5-0.5,1-0.4,1.5-0.2c0.5,0.2,1,0.6,1.5,0.8c-0.5-5,4.4,0.2,4.7-3.7
	c1.1-0.8,2.1,0,3.2,0c0.5-3.5,3.7-0.2,4.7-2.6c1.7,2.6,2.8,5.8,4,8.9c-6.4,3.1-13.6,6-20.3,8.1C267.5,319.1,263,311.9,260.3,302.6"
	/>
<path class="st2" d="M288.5,324.7c0.5,0,1-0.1,1.5,0c0.5,0,1,0.2,1.3,0.7c0,1.1-1.2,0.9-1.8,1.5c0.2,0.5,0.5,0.8,0.9,0.6
	c0.7-0.2,1.1-0.5,1.4-0.9c0.2-0.4,0.3-1,0.1-1.6c-0.5-0.4-1-0.7-1.6-0.8C289.8,324.2,289.2,324.3,288.5,324.7 M283.9,331.4
	c-0.8,1.3-2.4,0.7-3.6,1.2c-0.2-0.3-0.5-0.5-0.8-0.7c-0.3-0.2-0.5-0.5-0.2-1c0.7,0.3,1.1,0.5,1.6,0.6c0.5,0.1,0.9-0.1,1.6-0.4
	c0-0.8,0.3-1.5-0.2-2.4c-0.7-0.4-1.4-0.4-2.1-0.2c-0.7,0.2-1.3,0.6-1.7,1.1c-0.8,1.3-1.5,2.9-2.3,4.2c-0.4,0.6-0.9,1.2-1.6,1.6
	c-0.6,0.4-1.4,0.6-2.4,0.5c-0.2,0-0.5-0.2-0.5-0.5l0.2-0.5c0.3,0.3,0.8,0.2,1.1,0c0.2-0.5,0.5-1.1,0.5-1.7c0-0.6-0.1-1.1-0.6-1.4
	c-2.8,2-4.4-2.9-7.2-0.3l-0.6-0.3c0.2-1.5,0.9-3.1,1.2-4.7c0.1-0.8,0.2-1.6,0-2.3c-0.2-0.8-0.5-1.5-1.2-2.2c-1.8-2-3.5,2.8-4.6-0.2
	c-0.4,0.8-0.5,1.6-0.4,2.4c0.1,0.8,0.5,1.6,1.1,2.2c0.7,0.8,1.9,0.6,2.8,0.6c0.5,0,0.9,0.1,1.1,0.3c0.3,0.3,0.3,0.7,0.2,1.5
	c-0.6,1.7-1.1,3.5-0.3,5.3c2.1,1.8,5.7,0.8,8.1,2.6c2.8-0.2,2.3-3.8,5.2-4.1c0.8,0.2,1.8,0.6,2.6,0.6c0.4,0,0.9,0,1.3-0.1
	c0.4-0.1,0.8-0.4,1.1-0.8L283.9,331.4z M257.7,309c0.6-1.7,0-4,1.2-5.3l11.2,26.3h1.2c6.3-2.6,13.3-5.3,20-8.1l1.4,1.2
	c-0.6-3.8-3.1-7.8-3.8-11.6c5,12.4,11.2,24.6,15.3,37.1c-3.7-7.5-6.7-15.7-9.9-23.7l-0.9-0.8l-0.5,3.4c-0.5,0.3-1.2,0.9-1.9,1.2
	c-0.4,0.2-0.7,0.3-1.1,0.2c-0.4,0-0.7-0.2-1.1-0.5c-0.3-0.2-0.5-0.4-0.7-0.7c-0.1-0.3-0.2-0.6-0.2-0.9c0-0.3,0.1-0.6,0.2-0.9
	c0.1-0.3,0.4-0.5,0.6-0.7c-2.1,0.3-2.6,3.4-3.8,5c0.8-0.5,1.7-0.8,2.6-0.8c1,0,1.9,0.3,2.9,0.9c2.1,0.2,2.6-2.4,4.3-0.6
	c-9.9,4.3-20.5,11.8-30.9,15c0,0-3.7-14.4-5.3-20.5c-1.7-6-7-17.1-7-17.1c1.5-2.1,5.5-4.6,5.5-4.6c-0.8,3.1-1.5,10.1-0.8,13.1
	c0.2,0.4,0.5,0.8,0.9,1.1c0.3,0.3,0.7,0.6,1.1,0.6c0.3-0.3,0.2-0.8,0-1.1c0.5-0.2,1-0.4,1.5-0.6c0.5-0.3,0.8-0.6,0.8-1.3
	c0-0.3-0.3-0.3-0.6-0.5c-0.3,0.2-0.8,0.2-0.6,0.6c-0.8,0-0.6-0.8-0.9-1.1c0.2-0.6,0.9-0.6,1.4-0.9c0.6-0.2,0.9,0.2,1.1,0.7
	c0.2,0.5,0.3,1.1,0.6,1.5c0,1.7-1.8,1.8-2.8,2.9l0.8,0.3c1.7-1.1,1.1,1.5,1.8,1.7c0.5-1.2,1.2-2.4,1.2-3.7c-0.3-1.1,0.2-2.7-1.1-3.7
	c-0.3-0.3-0.6-0.5-0.9-0.7c-0.3-0.1-0.6-0.1-1-0.1c-0.7,0.1-1.4,0.3-2.1,0.3C257.1,310.8,257.2,309.9,257.7,309z"/>
<path class="st0" d="M251.1,356c-0.2-0.7-1.2-1.5-1.2-1.5s0-0.3-2.6-0.9c-2.6-0.5,0.9-2.1,0.9-2.1s0-0.5-0.6-0.5
	c-0.8-0.2,0.8,0,0.6-0.8c0-0.3-0.3-0.5-0.8-0.6c-0.5-0.1-1.2-0.2-2.1-0.5c-1.5-0.6,1.7-0.6,1.5-0.8c0-0.3,0,0-0.3-0.2
	c-0.3-0.2-2,0.2-3.4-1.1c-1.5-1.2,4.3-0.8,3.7-2.1c-0.5-1.2-3.1-0.2-3.5-0.5c-0.5-0.3,0.8-0.5,0.8-0.8c0-0.2-0.2-0.2-0.5-0.2
	c-0.4,0-0.9,0-1.8-0.2c-1.7-0.2,0.2-0.6,0.3-1.4c0.2-0.6-0.5,0.3-2-2.1c-1.5-2.3-0.5-0.6-0.6-1.5c-0.2-0.9,1.8-1.2,2-1.8
	c0-0.3-0.1-0.4-0.4-0.5c-0.3-0.1-0.8-0.2-1.6-0.6c-1.7-0.9,0-0.3,0.3-0.8c0.2-0.6,1.4-0.5,1.4-0.9c0.2-0.5-1.2,0-1.2-0.3
	c0-0.2,0.4-0.6,0.6-1.1c0.3-0.5,0.4-1,0-1.1c-0.5-0.1-0.8-0.3-1.1-0.6c-0.3-0.3-0.5-0.7-0.6-1.1c-0.2-0.5,0.5-0.5,1.2-0.3
	c0.7,0.2,1.6,0.6,1.9,0.7c0.8,0.3,2.1,0.2-0.3-1.5c-2.3-1.7-1.8-2.4-2.3-2.4c0,0,0.1-0.1,0.2-0.1c0.2-0.1,0.7-0.2,1.4-0.6
	c1.4-0.8,1.8,0,2.1-0.5c0.5-0.5-0.5-0.6-0.9-1.2c-0.5-0.8,0.3-0.5-1.2-0.9c-0.2-0.1-0.4-0.1-0.5-0.2c0.1-0.2,0.2-0.4,0.2-0.6
	c0.3-0.2,0.7-0.3,1-0.6c1.1-0.6,2.1-0.3,3.7-0.6c0.8-0.2,0.3-0.3-0.4-0.4c-0.7,0-1.8,0.1-2.2,0.2c-0.9,0.1-1.1-0.4-1.1-0.9
	c0.1-0.2,0.2-0.4,0.3-0.6c0.1,0,0.1-0.1,0.2-0.1c0.2-0.2,0.6-0.3,1.1-0.3c0.9-0.2,3.8-2,3.8-2c0,0-2.4,0.9-3.5,1.2
	c-0.3,0.1-0.6,0-0.8-0.3c0.3-0.5,0.5-1,0.8-1.5c2.2-3.8,4.5-6.6,5-6.8c0.2,0,0.5,0.3,1,0.9c0.5,0.6,1.1,1.5,1.7,2.7
	c1.4,2.4,3,6,4.6,10.5c2.8,7.3,6.4,20.2,7,22.9l2.9-0.9c10.1-3.7,17.6-8.6,27.8-11.6c1.7,1.5,3.3,4.8,4.4,8.2c1.1,3.4,1.7,6.9,1.2,9
	c-0.1,0.5-0.6,1.1-1.3,1.7c-0.7,0.6-1.6,1.1-2.7,1.6c-2.1,1-4.7,1.6-6.9,1.5l0.5-1.4c-0.2-0.2-0.3-0.8-0.8-0.6
	c-0.5,0.6-0.8,1.4-1.5,1.8c-1.1,0-0.2-1.1-0.5-1.5c-1.2,0.3-1.7,0.2-3.1-0.3c-0.1,0.4-0.4,0.6-0.9,0.7c-0.4,0.1-0.9,0-1.3,0
	c-0.9-0.1-1.5-0.2-0.7,0.7c2.7,3.2,5.7,8.7,6.6,13.3c0.8,4,1.4,5.7-0.9,9.3c-0.6-0.3-1.2-0.4-1.7-0.2c-0.5,0.2-1,0.5-1.5,1
	c-0.9,0.9-1.8,2-2.8,2.5l0.2,0.8c0.4,0.3,0.8,0.5,1.2,0.6c0.4,0.1,0.8,0,1.2-0.1c0.8-0.2,1.6-0.7,2.4-0.9l-0.3,0.3
	c0,0.3-0.2,0.8,0.3,0.9l3.1-2.8c-2.1,9.3-3.5,11.5-4.3,19.1c-0.2,0.9-2,0.9-1.1,2.1c-1.1,0.6-1.5-0.9-2.6-0.6
	c-1.1,0.4-0.8,0.6-0.2,1c0.5,0.3,1.3,0.6,1.1,1.2c-0.3,0-0.8-0.2-1.1,0.2c1.8,2.3,7.6-0.8,8.9,2.3c-0.5,0.6-1.1,0.6-1.7,0.9
	c-4,0.8-7.5-0.5-11.3,0.9c-0.8-0.6,0.3-2-0.9-2.3c-1.2,0.8-0.2,2.8-1.1,3.8c-0.8-1.5,0.5-3.7-0.8-4.9c-0.5,0.4-0.8,0.8-0.9,1.3
	c-0.2,0.5-0.2,1-0.1,1.6c-0.2-0.6,0-2.4-0.6-2.8c0.6-0.5,0.9-1.2,1.1-2c3.7-4.6-0.6-6.9,0-11.9l1.5,4.3v-1.5
	c-0.3-3.1-0.6-1.7-1.1-4.6l1.4-0.3c0.2-1.2-1.1-2.3-1.5-3.4c0.7,0.4,1.3,1.1,2,1.6c0.3,0.2,0.7,0.4,1,0.5c0.4,0.1,0.7,0.1,1.1-0.1
	c-1.1-1.7-2.9-2.7-3.7-4.4c1.7,0.9,3.1,2.3,4.1,3.8c0.3,0.2,0.8,0.3,1.1-0.2c0-0.8-0.9-1.5-1.5-2.3c0.9,0.3,2.4,1.4,3.4,1.1
	c-1.2-2.1-4.1-1.5-6-3.1c0.5-0.5,0.9,0,1.4,0.2c0.3,0.2,0.6,0.3,1,0.4c0.3,0.1,0.6,0,0.7-0.3c-0.8-1.2-2.4-0.8-3.2-2.1
	c0.8,0.2,1.7,0.3,2.4,0.3c0.3-0.7,0.3-1.1,0.1-1.4c-0.2-0.3-0.7-0.4-1.2-0.4c-0.5-0.1-1.1-0.1-1.6-0.3c-0.5-0.1-0.9-0.4-1.2-0.8
	c1.1-0.9,2.1,1.1,2.9-0.5c-1.4-1.1-3.1-2.1-4.7-2.8c1.1-0.6,1.8,0.5,2.9,0.2c0.2-0.5,0.1-0.8-0.1-1c-0.2-0.2-0.5-0.4-0.9-0.5
	c-0.7-0.3-1.7-0.4-2.2-0.9l1.2-0.3c-2-1.4-4,0.2-5.7-1.2c1.4-0.3,2.6,0.5,3.5-0.6c-1.5-1.2-3.5-1.1-5.5-1.8c0.3-0.2,0.5,0,0.8,0.2
	c0.5-0.1,1,0.1,1.4,0.1c0.5,0,0.9,0,1.2-0.6c-1.7-1.2-3.8-1.4-5.8-2.3c1.5-0.5,2.9,0.5,4.3,0.5c1.2-2.8-4.7-0.5-5.5-2l0.3,0.2
	c0.4,0.2,0.9,0.2,1.4,0c0.5-0.1,0.9-0.3,1.2-0.6c-1.1-1.8-4-1.1-4.9-3.1c1.2-0.5,2.6,1.5,3.7,0c-2-1.7-2-0.3-4.3-0.5
	c-0.2-0.5-0.6-0.9-0.3-1.2c0.3,0.2,0.8-0.2,1.1-0.3c0.2-0.3,0-0.6-0.2-0.9c-3.8,0.3,2.9-1.7-0.3-1.8c-1.1,2-2-1.1-1.7,0.8
	c-2.9-0.5,1.8,1.1-0.9,0.3c0.5,2.1-1.7-1.1-0.3,0.9c-2.6-1.7-0.5,1.1-2.1-1.2c-0.6-0.2,0.3,0.3-0.2,0.6c-0.1,0.1-0.4,0.1-0.8,0
	C251.8,356.1,251.4,356,251.1,356"/>
<path class="st2" d="M290.8,309.6c0.3,0.9,0.9,1.1,1.8,0.9c0.5-0.5,0.6-1.8-0.3-2.3C291.4,307.8,291.1,309,290.8,309.6z"/>
<path class="st2" d="M307.2,304.4l1.2-2.6l2.8,0.6c0.9,3.2,4,4.9,4.1,8.4c-4.9,1.8-9.8,4.3-14.8,5.7l-3.4-8.4
	c2.4,0.9,1.8-2.4,3.4-3.1C304.4,309.4,303.1,300.4,307.2,304.4"/>
<path class="st2" d="M310.9,345.5c-5.3-11.9-10.1-24.6-15.3-36.8C301.1,320.6,306.1,334,310.9,345.5"/>
<path class="st2" d="M308.5,321c1.5-2.9,3.4-0.7,5.2-1.6c-1.7-0.2-5.2-1.5-7.8-1.7c0.8,0.2,1.3,0.6,1.8,1.1
	C308.1,319.4,308.4,320.1,308.5,321L308.5,321z M303.7,320.8c0.2,0.3,0.5,0.5,0.8,0.7c0.3,0.1,0.8,0.2,1.3,0.1
	c0.2-0.5,1.4-0.8,0.6-1.5l-0.9-0.5c-0.2,0.5-0.3,1.1-0.9,1.1c-0.8,0-1.1-0.6-0.9-1.2l1.4-1.2c-0.5,0-0.8,0.1-1,0.2
	c-0.2,0.1-0.4,0.4-0.5,0.6C303.4,319.5,303.5,320.1,303.7,320.8z M301.4,317.9c5.5-1.5,9.9-5.3,15.4-5.8v0.3
	c-0.5,0.9-1.8,0.6-2.4,1.5c1.1,0.3,2,0.3,2.9,1.1c0.2,0.5,0.3,1.1,0.1,1.7c-0.1,0.6-0.4,1.2-0.9,1.6c1.7,0.5,2-1.7,3.4-2
	c0.2,0.3,1.2,0.9,2.1,1.6c0.4,0.3,0.8,0.7,1,1c0.2,0.3,0.2,0.6-0.1,0.9c0,0-7.3,1.4-9.9,2.1c-2.6,0.8-7.8,3.4-7.8,3.4
	c-0.4-0.1-0.6-0.2-0.8-0.4c-0.2-0.2-0.3-0.5-0.4-0.8c1.7-1.1,3.1-0.8,4.1-2.4c-1.5-0.3-3.2,2-4.9,0.6
	C302.3,321.1,301.5,319.4,301.4,317.9z"/>
<path class="st0" d="M360.9,339.9c1.6,1.1,7,4.4,8.5,5.3c1.8,1.4,8.1,2.8,8.7,5.8l-2.3,1.2c-1.5,0.8-1.7,1.4-2.1,2.1
	c-0.4-0.2-1.5-0.1-2.5,0c-1.1,0.2-2.1,0.4-2.5,0.7c-4.3-1.1-8.6-2.8-11.8-5.3c2.8,0.5,8.3,4.1,11.3,3.7v-0.9
	c-2.4-3.1-10.1-3.1-12.8-4.9c0.3-0.2,0.8-0.6,1.3-1c0.4-0.4,0.8-0.9,0.7-1.3c-2-0.9-4.7,1.7-6.6,2c-0.7,0.1-1.4,0.3-2.1,0.4
	c-0.3,0-0.7,0-0.9-0.1c-0.3-0.1-0.6-0.3-0.8-0.6c0.5-0.2,1.4-0.2,1.2-0.9l-3.8-0.3h0.5c0.9-0.8,2.9-0.5,2.9-2.3
	c-2.4,0.8-5.2,1.8-7.8,1.2c1.5-0.6,3.2-0.5,4.6-1.5c0-1.5-1.7,0-2.3-0.6l0.2-1.1c-1.7-0.2-2.9-1.2-4.6-0.3c-0.4,0-0.8,0.2-1.3,0.2
	c-0.5,0.1-0.9,0-1.3-0.6c1.1-0.9,2.6-0.5,4-0.6c-0.1-0.5-0.3-0.8-0.5-0.9c-0.3-0.1-0.6-0.2-0.9-0.1c-0.7,0-1.6,0.2-2.4-0.2l2.3-0.2
	c0.9-2-1.8-0.8-1.4-2.4c-0.8-0.2-1.3-0.5-1.6-1c-0.3-0.5-0.5-1-0.8-1.6c-0.6-0.2-1.4-0.6-2.2-0.9c-0.4-0.1-0.8-0.2-1.2-0.2
	c-0.4,0-0.8,0.2-1.1,0.5c-0.4,0.8-0.7,1.9-1.2,2.7c-0.2,0.4-0.5,0.8-0.8,1.1c-0.3,0.3-0.7,0.5-1.1,0.5l0.2-0.3l-0.8-0.3
	c-0.8,1.4-0.9,3.4-2.3,4.3l-0.5-0.9c-1.7,0.2-1.1,2.6-2.6,3.5c-0.9-0.3-0.5-1.4-0.9-2c-2.6-0.3,0,2.6-2,3.5c-0.8,0-0.2-0.8-0.5-1.2
	c-1.2,0.2-0.9,2.4-2.4,2.8c-0.2-0.5-0.3-0.9-0.6-1.3c-0.3-0.4-0.7-0.6-1.3-0.7l-6.3-15.9c0.5-1.4,1.3-2.3,2.3-3
	c1-0.7,2.2-1.1,3.4-1.4c2.5-0.6,5.3-0.6,7.6-1.2c2,0.2,4.3-0.5,6-1.4c0-0.3-0.1-0.4-0.2-0.4c0.4-0.3,0.7-0.9,1.2-0.7
	c0.9-0.8,2-1.4,2.4-2.8c2.3-1.2,4.3-1.2,6.2-0.6c1.9,0.7,3.6,2,5.3,3.5c1.8,1.5,1.8,1.8,3.8,3.2c0.5,0.2,1.5,0.7,2.4,1
	c0.5,0.2,1,0.3,1.4,0.3c0.4,0,0.8,0,1-0.2c0.8-0.1,1.6-1.1,2.2-2c0.6-0.9,1-1.5,1-0.9c0,5.8,1,9.4,2.4,11.8c1.4,2.4,3.2,3.5,4.6,4.4
	c0.5,0.3,0.7,0.6,0.9,1c0.1,0.4,0.2,0.9,0.1,1.4c-0.2,1-0.8,2-1.6,2.8c0.5,0.8,0.2,0.8,1.1,0.6c0.6-0.5,1.2-1.4,1.5-2.3
	c0.1-0.5,0.2-0.9,0.1-1.3C361.4,340.4,361.2,340.1,360.9,339.9"/>
<path class="st2" d="M263,324c0.3-0.9,0.9-0.3,1.5-0.5l-0.8-0.9C263.3,322.6,262.4,323.2,263,324z"/>
<path class="st2" d="M291.8,313.4c0.9,0.8,2.4-0.2,3.1-0.9c0.3-0.6,0.8-1.7-0.2-2C294,312.4,289.5,310.7,291.8,313.4z"/>
<path class="st2" d="M292.8,316.3l1.2,0.6c-0.8,0.8-0.9,2.1,0.2,2.8c0.9,0.6,1.8,0.3,2.8-0.2c0.5-0.9,0.9-2,0.2-3.1l-1.2-0.3
	c-0.5-0.9,1.1-0.9,0.6-2l-0.8-1.1C295.1,314.6,291,313.9,292.8,316.3z"/>
<path class="st2" d="M267.3,331.9c0.3,0.5,1.5,0.5,0.9,1.4c-0.8,1.4-3.1-1.2-2.3,1.2c0.8,0.3,1.7-0.5,2.6-0.8c0.2-0.8,0.2-2-0.8-2.4
	C267.5,331.3,267.5,331.6,267.3,331.9z"/>
<path class="st2" d="M295,321.5c0,1.1,1.1,1.7,2,1.5c1.1-0.2,1.7-0.9,2-1.8l-0.8-1.4C297.9,321.2,295.9,321.2,295,321.5L295,321.5z"
	/>
<path class="st2" d="M270.8,333.4h1.8C272.5,332.7,270.7,332.1,270.8,333.4z"/>
<path class="st2" d="M279.2,329.8l0.3,0.6l0.3-0.8c0.8,0,0.9,1.1,1.7,0.8c0.5-0.6,0.5-1.5-0.3-1.7
	C280.6,329,279.5,329.2,279.2,329.8z"/>
<path class="st2" d="M296.2,324.7c0.2,1.1,1.2,1.7,2.1,1.7c1.1-0.3,1.5-1.2,1.8-2.1l-0.8-1.1C298.6,324.1,297.6,324.6,296.2,324.7z"
	/>
<path class="st2" d="M297.6,327.9c0.2,1.2,1.1,1.8,2,1.7c1.1-0.3,1.8-0.9,2-1.8l-0.8-1.4C300,327.3,298.8,327.9,297.6,327.9
	L297.6,327.9z"/>
<path class="st2" d="M365.4,300.4c-0.5-1.2,1.2-3.1,2.3-3.5c5.7,1.2,8.7,3.4,14.7,3.5c6.6,0.3,13.3-1.5,17.4-1.2l-1.1,0.8
	c-9.6,3.5-21.7,4.1-33.2,0.9L365.4,300.4z"/>
<path class="st2" d="M299.4,332.5c1.1,0.3,2.4,0.5,3.2-0.6c0.6-0.8,0.2-1.4-0.2-2C301.7,331.6,298.2,329.9,299.4,332.5z"/>
<path class="st2" d="M300.6,335.4c0.9,0.9,2,0.3,3.1-0.2c0.5-0.8,0.5-1.7,0-2.4C303.2,335.3,299.4,332.7,300.6,335.4z"/>
<path class="st2" d="M301.4,337.6c0,0.9,0.9,1.1,1.7,1.5c1.4-0.3,2.4-1.4,2.3-2.8c-1.7-1.7-1.8,2.3-3.8,0.8L301.4,337.6z"/>
<path class="st2" d="M302.9,341.1c0.9,0.5,1.8,0.9,2.8,0.3c0.6-0.8,1.5-2.3,0.3-2.9C305.2,340.3,302.4,338.9,302.9,341.1z"/>
<path class="st2" d="M304.1,344.4c1.1,0.5,2.1,0.9,3.2,0c0.3-0.8,1.2-2.4-0.3-2.6C306.7,344,303.5,342.1,304.1,344.4z"/>
<path class="st2" d="M305,346.6c0.5,0.8,1.2,1.5,2.3,1.4c1.2-0.3,1.7-1.4,1.7-2.4l-0.6-0.8C307.3,345.7,306.6,346,305,346.6
	L305,346.6z"/>
<path class="st0" d="M389.4,304.6c1.1,0.8,2.6,1.5,4,1.2c0.3-0.2,0.8-0.5,0.6-0.9C392.9,303.3,390.9,304.1,389.4,304.6z"/>
<path class="st0" d="M388.2,306.5c1.7,1.7,4.1,1.5,6.4,1.5C392.8,306.8,390.2,306.7,388.2,306.5z"/>
<path class="st0" d="M379,355c0,1.1,0.6,4.1-1.5,3.5l0.9,2.3c0.6-0.3-1.7,0.9-0.6,1.8c0.8,1.8-0.8,2.6-0.8,4.4c0.3,0,0.6-0.6,0.9,0
	c0,2-2.8,3.7-1.8,5.5c1.1-1.5,1.2,2.3,2.3,0.5c0.5,0.3,1.5,0.5,2,0.3c1.2-0.3,2.1-3.2,4.4-2.4c1.1-0.2,1.1-0.6,1.5-1.7
	c-2.1-2.6-1.4-7.6-3.7-6.9l0.5-1.8c-0.6-0.2-1.2,0.2-1.8-0.6c-0.2-0.3-0.3-0.8-0.2-1.1l0.5-0.2c-0.3-2.3-1.4-4.9-2.1-6.4
	c-0.5,0-0.6,0.9-0.6,1.7L379,355z"/>
<path class="st2" d="M386.5,373.9c0,0.8,0.6,0.6,0.9,1.1c0.8-0.8,2.6-0.3,2.1-2.3C388.8,370.7,386.2,371.2,386.5,373.9L386.5,373.9z
	"/>
<path class="st2" d="M286.1,408.3c-0.5,0.9,0.5,0.9,0.8,1.4c1.1,0,2.7,0,2.7-1.2C289.2,406.8,286.7,407.2,286.1,408.3z"/>
<path class="st2" d="M281.5,408.3c0,0.5-0.2,1.4,0.6,1.2c0.8,0,1.5,0.2,2-0.6c0-0.6-0.2-1.2-0.8-1.7
	C282.4,407.2,281.7,407.1,281.5,408.3z"/>
<path class="st2" d="M276.3,407.9c-0.2,1.1,0.3,1.7,1.4,2c0.8,0.3,1.2-0.5,1.8-0.9C279.7,407.2,277.2,406.6,276.3,407.9L276.3,407.9
	z"/>
<path class="st0" d="M346,373c0,1.1-0.6,4.1-2.3,3.4l0.8,2.3c0.5-0.2-1.4,0.8-0.6,1.8c0.6,1.8-0.5,2.4-0.5,4.3
	c0.2-0.2,0.5-0.6,0.8,0c0,2-1.2,3.4-0.3,5.3c0.8-1.4,0.9,2.3,1.7,0.6c0.3,0.3,0.8,1.4,0.9,1.1c0.6-1.4,4.3-2,6.1-1.1
	c0.8,0,1.1-0.2,1.4-1.2c-1.7-2.8-3.5-9-5.3-8.6l0.5-1.7c-0.5-0.3-0.8-0.5-1.2-1.2c-0.2-0.5-0.3-0.9-0.2-1.2l0.6-0.5
	c-0.3-2.3-0.3-6.7-1.1-8.3c-0.3,0-1.4,3.1-1.4,3.7L346,373z"/>
<path class="st2" d="M353,394c-0.2,0.8,0.5,0.8,0.8,1.2c0.9-0.5,2.6,0.3,2.4-1.7C355.9,391.4,353.2,391.2,353,394L353,394z"/>
<path class="st2" d="M348.4,393.8c-0.2,0.8,0.3,0.8,0.6,1.2c1.1,0,1.8-0.9,2-2C350.4,391.2,348.1,391.2,348.4,393.8z"/>
<path class="st2" d="M343.6,394.7c1.2,1.2,2,0.6,3.2-0.2c0.2-1.5-1.1-1.5-1.7-2C344.6,393.5,343.4,393.2,343.6,394.7z"/>
<path class="st3" d="M285.8,226.6c0.2,1.2,0.9,2.6,2.4,1.5c2.6-0.5,0.8-3.5,1.7-5.2c-0.5-0.9-0.2-2.4-1.4-2.6
	C284,220.1,286.7,224.5,285.8,226.6L285.8,226.6z"/>
<path class="st3" d="M273.3,226c-0.3,2-0.5,5,1.5,6.9c1.7-1.1,3.7-0.2,5-1.5c-0.6-2.8,1.1-5.3-0.9-7.8
	C277.1,224.3,274.5,224.3,273.3,226z"/>
<path class="st3" d="M258.7,230.3c-0.2,2.4,1.2,4.4,2.4,6.3c1.7,0.6,4.6-0.6,6.3-1.5c-0.2-2.1-0.9-4.7-2-6.7L258.7,230.3z"/>
<path class="st3" d="M249.9,233c-0.2,1.1,4.6,2.1,0.9,2.8c0,0.9,2.9,0.9,1.4,2.6c0.6,0.3,1.8,0.2,2.9-0.3
	C253.4,236.4,253.2,231.1,249.9,233z"/>
<path class="st3" d="M283.8,238.1c0.9,2.1,3.4-0.2,5-0.2c0.2-2.3,0.9-4.7-0.8-6.7C282.7,230.7,285,235.3,283.8,238.1z"/>
<path class="st3" d="M273.4,238.2c0.5,1.2-0.3,3.4,1.7,3.7c2.1-1.2,6.7-0.3,6.6-3.8c-0.5-1.5,0.2-3.4-1.2-4.6
	C277.8,234.7,272.8,234.6,273.4,238.2z"/>
<path class="st3" d="M260.9,239.9c0.9,1.8,0.5,4.9,2.9,5.2c2.3-0.2,4.7-1.2,7-1.8c0.2-2,0.2-4.4-1.1-6.3
	C266.7,237.9,263.5,238.7,260.9,239.9z"/>
<path class="st3" d="M253.9,241.8c0.2,0.6,0.3,1.5,1.2,1.7c-0.5,0.5-0.5,1.1-0.3,1.7c2.4-0.3,1.5,3.8,4,2.1c0.8-0.3,1.7-0.3,2.1-1.1
	C258.9,243.9,258.6,237.9,253.9,241.8z"/>
<path class="st3" d="M281.7,248.6c0.6,1.1,1.8-0.3,2.8,0.2l4.3-1.2l-0.8-5.8C285.3,243.1,277.8,243.9,281.7,248.6z"/>
<path class="st3" d="M270.7,248c0.3,2,1.2,4,3.5,4c1.7,0.2,3.2-1.1,4.7-1.8l-1.5-4.9C275.1,246.8,271.9,245.3,270.7,248z"/>
<path class="st3" d="M262.4,253.8l0.5,1.5c1.2-0.8,4.3-0.3,3.5-2.4c0.8-1.2,3.2-1.4,1.7-3.5C265,248.9,263.6,252,262.4,253.8z"/>
<path class="st3" d="M261.5,259.3c-0.3,1.1,1.7,1.7-0.2,2c0,0.9,0.9,0.9,1.4,1.4c-0.6,1.1-1.5,0-2.4,0.6c0.5,1.2,2.1,1.8,3.2,2
	c1.7-0.8,3.2-0.2,4.7-0.9l-2-6.7C264.7,257.6,262.4,258.1,261.5,259.3"/>
<path class="st3" d="M289.6,256.6c0.5,0.5,1.1-0.2,1.5-0.2l-1.8-5.7C286.1,251.5,289.8,254.4,289.6,256.6L289.6,256.6z"/>
<path class="st3" d="M276.6,254.6c1.1,2,0.5,6.9,4,5.7l6.6-2.3c-0.2-2-0.6-4.6-2.1-6L276.6,254.6z"/>
<path class="st3" d="M269.7,264.2c0.8,0.3,1.5-0.3,2.3-0.5c-0.3-2.1-0.8-5-2.3-6.6l-1.5,0.5L269.7,264.2z"/>
<path class="st3" d="M285.9,261.9c0.9,1.7,0.8,4,2.3,5c2-0.9,4.4-0.9,5.8-2.4c-0.5-2-1.2-3.7-2.4-4.9
	C289.8,260.4,287.2,260.2,285.9,261.9z"/>
<path class="st3" d="M275.2,264.8c0.2,1.7,0.5,4,1.8,5c2.6-1.1,5.2-0.6,7.3-2.1c-0.9-1.7-0.5-5.3-2.8-5L275.2,264.8z"/>
<path class="st3" d="M266.8,267.6c0,0.9,0.8,0.9,1.1,1.4c-0.2,0.5-0.2,0.9-0.8,0.9l1.8,1.5c-0.5,0.6-1.5,0.6-2.3,1.1
	c1.5,1.8,4.7-0.6,7-0.8l-2-5.8L266.8,267.6z"/>
<path class="st3" d="M294.2,267.7c2,3.1,5.5,5.2,8.6,7.3c0.5-0.2,1.2-0.3,1.1-0.9c-1.7-3.2-5.5-4.9-8.4-6.9L294.2,267.7z"/>
<path class="st3" d="M284.6,271.7c0.9,3.1,3.7,6.9,5.7,9.2c2.9-0.9,5.3-2.9,7.8-4.3C295,273.2,290.2,266,284.6,271.7z"/>
<path class="st3" d="M272,276.1c-0.2,2.8,0.8,9.5,1.8,9.6c4.7,0.3,7.9-1.7,11.9-3.2c2.4-0.9-2-6.1-2.8-8.4
	c-2.8-3.4-7.2,0.3-10.2,1.1L272,276.1z"/>
<path class="st3" d="M268.1,278.9c0.3,0.3,0.2,1.1,0.8,1.1c0,1.7-1.5,0.3-2.3,1.2c0.6,1.2,3.4,1.2,2.3,2.9c0,0.6,0.6,0.8,1.1,0.9
	c-0.5,1.5-2.4,0.2-3.5,0.8c0.2,1.4,1.8,1.5,2.8,1.7c2.3-0.2,2.4-2,2.3-3.7C270.8,282.1,270.7,278,268.1,278.9z"/>
<path class="st3" d="M300,278.7c2-0.2,4.6-0.6,6-2.1c0.2-1.2-0.8,0-1.2-0.6l-5,1.8L300,278.7z"/>
<path class="st2" d="M291.9,454.9l2-0.3c1.2-0.2,1.2-0.5,1.2-4.3v-9.6c0-4.3-0.2-4.6-0.8-4.6c-0.3,0-0.6,0-1.1,0.2l-2,0.3l-0.2-0.9
	c1.2-0.6,6.7-2.8,7.2-3.1l0.5,0.5v17.3c0,3.8,0,4.1,1.4,4.3l2,0.3v0.9h-10.2V454.9z"/>
<path class="st2" d="M310.7,445.8c-0.8,0.2-1.7,0.2-2.3,0.2c-2.4,0-4.7-2.3-4.7-5.7c0-4.9,2.8-7.6,6.4-7.6c4,0,6.6,3.7,6.6,9.5
	c0,9.6-4.1,14.4-10.1,14.4c-1.7,0-2.6-0.5-3.2-0.8l0.3-1.2c0.6,0.3,1.4,0.6,2.8,0.6c4.6,0,6.4-5.3,6.4-11.9c0-3.8-0.9-9.2-3.4-9.2
	c-2,0-2.6,2.1-2.6,4.7c0,3.8,1.5,6.1,3.8,6.4V445.8z"/>
<path class="st2" d="M322.9,456.9c-1.4-0.8-2.3-1.4-3.1-2.6c0.3-2.6,4.1-7.3,6.7-12.4c1.4-2.8,1.7-4.1,2-5.3h-5.8
	c-3.4,0-3.1,0-4,2.8l-0.8-0.2c0.2-2.1,0.3-4.1,1.2-6h12.2l0.2,0.3c-0.8,3.8-2.1,5.5-5.3,13.3c-1.5,4.4-2,4.7-3.1,9.8L322.9,456.9z"
	/>
<path class="st2" d="M337.6,456.9c-1.4-0.8-2.3-1.4-3.1-2.6c0.3-2.6,4-7.3,6.7-12.4c1.4-2.8,1.7-4.1,1.8-5.3h-5.8
	c-3.4,0-3.1,0-4,2.8l-0.8-0.2c0.2-2.1,0.5-4.1,1.4-6H346l0.3,0.3c-0.8,3.8-2.3,5.5-5.5,13.3c-1.5,4.4-2,4.7-2.9,9.8L337.6,456.9z"/>
<path class="st2" d="M315.3,428c-0.6,0.3-1.7,1.2-3.7,1.2c-2.1,0-4.4-1.5-4.4-4.6c0-2.9,2.3-4.6,4.4-4.6c2.9,0,3.5,2,3.7,3.1
	c-1.7,0.8-3.7,1.4-5.7,1.8c0.2,1.1,0.8,3.2,3.4,3.2c1.1,0,1.8-0.5,2-0.6L315.3,428z M313,423.3c-0.2-1.4-0.6-2.6-1.8-2.6
	c-1.7,0-1.7,3.1-1.7,3.4C310.7,423.9,311.9,423.6,313,423.3z"/>
<path class="st2" d="M321.6,422.8c0-0.6-0.5-2.1-1.8-2.1c-0.6,0-1.1,0.6-1.1,1.2c0,2,4.3,1.7,4.3,4.6c0,1.4-1.1,2.8-3.7,2.8
	c-1.1,0-1.8-0.3-2.6-0.6c-0.2-0.8-0.3-1.5-0.3-2.8h0.8c0.2,1.1,0.9,2.6,2.4,2.6c0.8,0,1.2-0.6,1.2-1.2c0-2.3-4.3-1.7-4.3-4.7
	c0-0.2,0-2.4,3.4-2.4c1.1,0,1.8,0.2,2.3,0.5c0.2,0.8,0.2,1.5,0.2,2.3H321.6z"/>
<path class="st2" d="M329.8,428.5c-0.5,0.2-1.4,0.8-2.8,0.8c-2.3,0-2.3-2-2.3-3.4v-4.7c-0.3,0-1.1-0.2-1.4-0.2v-0.5
	c0.3-0.2,0.9-0.2,1.4-0.3v-0.8c0.8-0.6,1.4-1.1,2.3-1.7l0.3,0.2c-0.2,0.3-0.3,1.8-0.3,2.3c0.5,0.2,1.7,0.2,2.1,0.3v0.5
	c-0.8,0-1.5,0.2-2.1,0.2v3.5c0,2,0,3.4,1.7,3.5c0.5,0,0.6-0.2,0.9-0.2L329.8,428.5z"/>
<path class="st2" d="M330.7,427.9c0-0.6,0.6-1.2,1.2-1.2c0.8,0,1.2,0.6,1.2,1.2c0,0.8-0.5,1.4-1.2,1.4
	C331.3,429.3,330.7,428.6,330.7,427.9z"/>
<path class="st2" d="M356.1,444.8c0,1.4-1.2,2.6-2.8,2.6c-1.5,0-2.8-1.2-2.8-2.6c0-1.4,1.2-2.6,2.8-2.6
	C354.9,442.2,356.1,443.5,356.1,444.8z"/>
<path class="st2" d="M283.8,444.8c0,1.4-1.2,2.6-2.8,2.6c-1.5,0-2.9-1.2-2.9-2.6c0-1.4,1.4-2.6,2.9-2.6
	C282.6,442.2,283.8,443.5,283.8,444.8z"/>
<path class="st2" d="M164,394.4l0.5,0.9c0.8,1.5,1.4,1.4,4.9,0l12.8-4.7c3.5-1.4,4.1-1.5,3.7-3.2l-0.2-0.9l0.9-0.3l3.4,9.2
	c1.7,4.3,2.8,9.6-2.8,11.6c-6,2.3-9.6-2.9-11.2-6.4l1.4-0.6c1.2,2.4,3.2,4.3,7.6,2.8c3.7-1.4,4.4-4.4,3.4-7.3
	c-0.2-0.6-0.5-1.1-0.9-1.7l-16.5,6.3c-3.5,1.2-4.1,1.5-3.7,3.2l0.5,1.4l-0.9,0.3l-3.8-9.9L164,394.4z"/>
<path class="st2" d="M179.9,434.3c0.3-0.6,0.8-1.4,0.5-1.8c-0.3-0.6-3.7-2.4-5.8-6.7c-2.9-6.1,0.3-9,3.8-10.7l10.7-5.2
	c3.4-1.7,3.8-1.8,3.2-3.5l-0.3-0.9l0.9-0.5l4.4,9.2l-0.9,0.5l-0.5-0.8c-0.9-1.5-1.4-1.4-4.7,0.3l-9.2,4.4c-4.7,2.3-6.1,4.9-4.3,8.9
	c1.2,2.3,3.2,3.5,4.1,4l14.2-7c3.4-1.7,3.8-1.8,3.4-3.5l-0.3-0.9l0.9-0.5l4.4,9.2l-0.9,0.5l-0.5-0.8c-1.1-1.5-1.5-1.4-4.9,0.3
	l-17.4,8.6c-0.6-0.5-0.9-0.9-1.4-1.7L179.9,434.3z"/>
<path class="st2" d="M185.2,443.6l0.6,0.8c1.2,1.2,1.1,1.4,4.7-0.9l11.8-7.5c3.5-2.3,3.4-2.1,2.8-3.8l-0.3-0.8l0.8-0.6l6,9.3
	c0.9,1.5,4.3,6.7-0.2,9.6c-3.4,2.1-6.3,0.3-7.8-1.1h-0.2c0.9,2.1,1.8,6.3-2.1,8.9c-4.6,2.9-8.7-0.5-11.6-5.2l-5.2-8.1L185.2,443.6z
	 M190.1,449.4c0.3,1.1,0.6,2,1.2,2.9c1.8,2.9,4.4,2.9,6.9,1.4c2.6-1.7,4.1-4.7,1.7-8.6l-0.9-1.4L190.1,449.4z M200.2,443l0.8,1.2
	c1.5,2.3,3.5,4,7,1.8c2.4-1.5,2.9-4.1,1.4-6.6c-0.3-0.6-0.8-1.1-1.2-1.5L200.2,443z"/>
<path class="st2" d="M206,474l0.9,0.6c0.8,0.3,1.4,0.5,4-0.6l20.3-8.3c0.9,0.5,1.4,0.8,2,1.2l-10.1,20.5c-0.8,1.5-1.2,2.4-0.6,3.7
	l0.6,0.8l-0.8,0.8l-7.2-7.6l0.6-0.8l1.2,0.9c0.6,0.5,1.1,0.8,1.5,0.3c0.3-0.2,0.5-0.5,0.8-1.1l2.8-5.3c-0.5-0.8-1.5-2.3-2.3-3.1
	c-0.6-0.6-2-1.8-2.8-2.1l-4,1.7c-1.2,0.6-2.3,1.2-2.4,1.4c-0.5,0.5-0.5,0.8,0,1.4l1.1,1.7l-0.8,0.6l-5.5-5.8L206,474z M218.6,473
	c0.8,0.6,1.7,1.5,2.3,2.1c0.5,0.6,1.4,1.5,2,2.3l4.3-8.1l-0.2-0.2L218.6,473z"/>
<path class="st2" d="M223.8,492.8l1.1,0.5c1.4,0.9,2.3-0.3,5.3-4.1l10.4-13.8c0.5,0.2,1.5,0.8,1.7,0.9l2.1,24.6l6.1-8.1
	c3.8-4.9,3.7-5.3,2.3-6.7l-0.8-0.8l0.6-0.8l6.6,5.2l-0.6,0.8l-0.9-0.6c-1.5-0.8-2.3,0.3-5.3,4.3l-10.5,13.6
	c-0.3-0.2-1.2-0.6-1.7-0.9l-2.1-24.3l-6.1,7.9c-3.7,4.7-3.7,5.2-2.3,6.6l0.9,0.8l-0.6,0.8l-6.7-5L223.8,492.8z"/>
<path class="st2" d="M250,512.4l0.9,0.3c1.7,0.5,1.8,0.2,3.5-3.4l6-12.4c1.7-3.7,1.8-3.8,0.3-4.9l-0.8-0.5l0.5-0.9l10.5,5
	c4.7,2.3,12.5,6.7,7.5,17.4c-1.1,2.3-6.1,11-20.8,4l-8.1-3.8L250,512.4z M257.2,514.7c0.9,0.8,2,1.5,3.1,2.1
	c5.3,2.6,10.2,0.3,13.3-6.1c3.2-6.7,1.2-11.5-4.3-14.1c-0.9-0.5-1.8-0.8-2.9-1.1L257.2,514.7z"/>
<path class="st2" d="M300,525.4c-0.5,3.7-0.6,4.1,1.2,4.6l0.8,0.3l-0.2,0.9l-9.9-1.4l0.2-0.9h0.8c1.8,0,1.8-0.5,2.4-4.3l1.8-13.6
	c0.5-3.8,0.5-4.3-1.2-4.7l-0.8-0.2V505l10.7,1.5c3.4,0.5,8.7,1.5,7.8,7.3c-0.3,3.4-3.4,5.2-5.5,5.8c0.3,1.4,2.3,7.2,4.6,10.8
	c0.5,1.1,1.5,1.2,2.1,1.4l-0.2,1.1l-3.2-0.5c-3.7-0.6-4.7-3.2-5.3-4.9l-1.1-2.9c-0.9-2.8-0.8-4.1-3.2-4.4l-1.1-0.2L300,525.4z
	 M300.9,518.6l1.8,0.3c5.2,0.6,5.8-3.5,6.1-5c0.5-3.5-1.5-5.8-4.6-6.1c-0.6-0.2-1.2-0.2-2,0L300.9,518.6z"/>
<path class="st2" d="M317.1,531.8l0.9-0.2c1.7-0.5,1.7-0.3,1.4-4.6l-0.6-13.8c-0.3-4.3-0.3-4.1-2-4.4h-0.9v-1.1l17.1-0.9
	c0.5,2,0.6,4.3,0.8,6.1l-1.4,0.3c-1.2-4.7-2.4-4.7-6.3-4.6l-2.8,0.2l0.5,9.8l2.6-0.2c3.2-0.2,3.8-0.3,4-1.8l0.2-1.4h0.9l0.3,7.5
	h-0.9l-0.3-1.1c-0.3-1.7-0.8-1.7-4-1.5l-2.6,0.2l0.5,10.1c1.2,0.3,2.6,0.5,3.8,0.3c5.7-0.2,5.8-3.2,6.4-6l1.4,0.2
	c0,2.6-0.3,4.6-0.9,7l-18,0.9V531.8z"/>
<path class="st2" d="M349.8,510.1c-0.9-1.8-2.4-5.3-6.4-4.4c-2.1,0.5-3.4,2.1-2.8,4.4c1.2,5.8,12.7,2.8,14.5,10.7
	c1.2,5.2-3.1,8.3-7.3,9.2c-3.2,0.8-5.5,0.3-6.7,0c-1.4-2.1-2-3.8-2.6-6.7l1.7-0.8c0.9,2.1,3.4,7,7.9,6c2.3-0.5,3.4-2.4,2.9-4.9
	c-1.4-6.3-12.5-3.4-14.2-11c-1.1-4.6,1.8-7.3,6.6-8.4c2.8-0.6,4.6-0.3,6,0.2c0.8,1.7,1.4,3.7,1.7,5.5L349.8,510.1z"/>
<path class="st2" d="M359.9,501.1l-1.4,0.6c-3.8,1.7-3.8,2.8-3.2,6.9l-1.2,0.5c-0.2-0.5-1.8-5.3-2-6.1l18.9-8.1
	c0.5,0.8,2.8,5.3,3.1,6l-1.2,0.5c-2.6-3.4-3.2-4.1-7.2-2.6l-1.4,0.6l7,16.7c1.5,3.7,1.5,3.8,4,3.2l0.8-0.3l0.5,0.9l-10.5,4.4
	l-0.5-0.9l0.8-0.5c2.1-1.2,2.1-1.4,0.6-4.9L359.9,501.1z"/>
<path class="st2" d="M379.2,517.9l0.6-0.8c0.6-0.6,0.9-1.2,0.5-4.1l-3.8-21.5c0.6-0.8,1.1-1.1,1.7-1.5l17.7,14.2
	c1.4,1.1,2.3,1.7,3.5,1.2l0.9-0.3l0.6,0.8l-9,5.5l-0.6-0.8l1.2-1.1c0.6-0.5,0.9-0.9,0.6-1.4c-0.2-0.3-0.5-0.6-0.9-0.9l-4.7-3.8
	c-0.9,0.2-2.4,0.9-3.4,1.5c-0.8,0.5-2.3,1.5-2.8,2.3l0.9,4.3c0.2,1.1,0.6,2.4,0.8,2.6c0.3,0.5,0.6,0.5,1.2,0.3l1.8-0.8l0.6,0.8
	l-7,4.3L379.2,517.9z M380.8,505.4c0.6-0.6,1.7-1.4,2.4-1.7c0.6-0.5,1.8-1.1,2.8-1.5l-7.2-5.8L380.8,505.4z"/>
<path class="st2" d="M416.1,492.4c-0.8,0-1.5-0.3-2,0c-0.5,0.5-1.4,4.3-5,7.3c-5.2,4.3-8.7,2-11.3-1.1l-7.6-9.2
	c-2.4-2.9-2.8-3.2-4.3-2.3l-0.8,0.5l-0.6-0.8l7.8-6.4l0.6,0.8l-0.6,0.6c-1.1,1.4-0.9,1.7,1.5,4.6l6.6,7.8c3.4,4,6.1,4.9,9.5,2
	c2-1.7,2.8-4,2.9-4.9l-10.2-12.2c-2.4-2.9-2.8-3.2-4.1-2.3l-0.8,0.5l-0.8-0.8l7.8-6.4l0.6,0.8l-0.6,0.6c-1.1,1.4-0.8,1.7,1.5,4.6
	l12.5,15c-0.3,0.6-0.8,1.1-1.2,1.7L416.1,492.4z"/>
<path class="st2" d="M425.2,475.9c2.9,2.4,3.2,2.8,4.6,1.5l0.6-0.5l0.8,0.6l-6.6,7.6l-0.8-0.6l0.5-0.8c0.9-1.5,0.6-1.8-2.3-4.3
	l-10.4-9c-2.9-2.6-3.2-2.8-4.6-1.7l-0.6,0.6l-0.8-0.6l7-8.1c2.1-2.6,6-6.4,10.5-2.6c2.4,2.3,2.4,5.7,1.7,7.9
	c1.4,0.3,7.3,1.8,11.6,2.1c1.1,0,1.8-0.8,2.3-1.1l0.8,0.6l-2.1,2.4c-2.4,2.8-5.2,2.3-7,1.8l-3.1-0.8c-2.8-0.6-3.8-1.5-5.3,0.3
	l-0.8,0.8L425.2,475.9z M420.1,471.4l1.2-1.4c3.4-4,0.3-6.7-0.9-7.8c-2.8-2.3-5.7-1.8-7.6,0.3c-0.5,0.6-0.8,1.1-1.1,1.7L420.1,471.4
	z"/>
<path class="st2" d="M439.7,465.9l0.3-0.9c0.3-0.8,0.2-1.5-1.5-3.8l-12.7-17.9c0.3-0.9,0.6-1.5,0.9-2.1l22.2,5.2
	c1.7,0.5,2.8,0.6,3.7-0.3l0.8-0.8l0.8,0.6l-5.8,8.7l-0.8-0.5l0.6-1.4c0.3-0.8,0.5-1.2,0-1.5c-0.3-0.3-0.8-0.3-1.2-0.5l-6-1.5
	c-0.8,0.6-1.8,2-2.4,2.9c-0.5,0.8-1.4,2.4-1.5,3.2l2.8,3.5c0.6,0.9,1.5,1.8,1.8,2c0.5,0.3,0.8,0.2,1.2-0.3l1.4-1.4l0.9,0.5l-4.6,6.9
	L439.7,465.9z M435.9,454c0.3-0.9,0.9-2,1.4-2.6c0.5-0.8,1.2-1.8,2-2.6l-9-2.1L435.9,454z"/>
<path class="st2" d="M454,443.9l0.5-1.1c0.5-1.5-0.8-2.1-5.2-4.4l-15.4-7.6c0-0.5,0.5-1.5,0.5-1.8l23.8-6.7l-9.2-4.6
	c-5.5-2.7-5.8-2.6-6.9-0.9l-0.6,0.9l-0.9-0.5l3.7-7.5l0.9,0.5l-0.3,1.1c-0.6,1.5,0.8,2.1,5.2,4.4l15.4,7.6c-0.2,0.5-0.5,1.5-0.6,2
	l-23.5,6.7l9,4.4c5.3,2.8,5.7,2.6,6.9,0.9l0.6-0.9l0.9,0.5l-3.8,7.5L454,443.9z"/>
<path class="st2" d="M448.8,401.1l-0.5,1.4c-1.4,4-0.6,4.6,2.9,6.9l-0.5,1.4c-0.6-0.3-5.2-2.3-6-2.8l7-19.4c0.8,0.2,5.7,1.5,6.3,1.8
	l-0.5,1.2c-4.1-0.5-5.2-0.5-6.7,3.5l-0.5,1.4l17,6.1c3.7,1.4,3.8,1.4,5-0.8l0.3-0.8l0.9,0.3l-3.8,10.8l-0.9-0.5l0.2-0.8
	c0.5-2.4,0.3-2.4-3.2-3.8L448.8,401.1z"/>
<path class="st2" d="M488.9,331.4c0,0.1,0,0.2,0,0.3c0,0.1,0,0.1,0,0.2c0,1.1,0.2,1.9,0.7,2.5c0.5,0.6,1.1,0.8,1.8,0.8
	c0.7,0,1.3-0.2,1.8-0.7c0.4-0.4,0.7-1,0.7-1.8c0-0.3-0.1-0.8-0.2-1.3L488.9,331.4z M482.9,339.6v-3.1l5.4-3.9c0-0.3,0-0.5,0-0.7
	c0-0.1,0-0.2,0-0.2c0-0.1,0-0.2,0-0.3l-3.3,0c-0.7,0-1.2,0.1-1.4,0.2c-0.2,0.2-0.4,0.5-0.4,1v0.5h-0.3v-4.9h0.3v0.4
	c0,0.5,0.2,0.8,0.5,1c0.2,0.1,0.6,0.2,1.2,0.2h7.4c0.7,0,1.2-0.1,1.3-0.2c0.2-0.2,0.4-0.5,0.4-1v-0.4h0.3v4.2c0,1.2-0.1,2.1-0.3,2.7
	c-0.2,0.6-0.5,1.1-1,1.5c-0.5,0.4-1,0.6-1.7,0.6c-0.7,0-1.3-0.2-1.8-0.7c-0.5-0.5-0.9-1.2-1.1-2.1l-3.3,2.4c-0.8,0.5-1.3,1-1.5,1.4
	c-0.2,0.4-0.4,0.9-0.5,1.5L482.9,339.6z"/>
<path class="st4" d="M499.3,333.8c0,6.2-4.8,11.2-10.7,11.2c-5.9,0-10.7-5-10.7-11.2c0-6.2,4.8-11.2,10.7-11.2
	C494.6,322.6,499.3,327.6,499.3,333.8"/>
</svg>
